<svg width="531" height="78" viewBox="0 0 531 78" fill="none"
  xmlns="http://www.w3.org/2000/svg">
  <path
    d="M118.752 62.64C115.339 62.64 112.16 62.0853 109.216 60.976C106.315 59.824 103.776 58.224 101.6 56.176C99.4667 54.0853 97.8027 51.632 96.608 48.816C95.4133 46 94.816 42.928 94.816 39.6C94.816 36.272 95.4133 33.2 96.608 30.384C97.8027 27.568 99.488 25.136 101.664 23.088C103.84 20.9973 106.379 19.3973 109.28 18.288C112.181 17.136 115.36 16.56 118.816 16.56C122.485 16.56 125.835 17.2 128.864 18.48C131.893 19.7173 134.453 21.5733 136.544 24.048L131.168 29.104C129.547 27.3547 127.733 26.0533 125.728 25.2C123.723 24.304 121.547 23.856 119.2 23.856C116.853 23.856 114.699 24.24 112.736 25.008C110.816 25.776 109.131 26.864 107.68 28.272C106.272 29.68 105.163 31.344 104.352 33.264C103.584 35.184 103.2 37.296 103.2 39.6C103.2 41.904 103.584 44.016 104.352 45.936C105.163 47.856 106.272 49.52 107.68 50.928C109.131 52.336 110.816 53.424 112.736 54.192C114.699 54.96 116.853 55.344 119.2 55.344C121.547 55.344 123.723 54.9173 125.728 54.064C127.733 53.168 129.547 51.824 131.168 50.032L136.544 55.152C134.453 57.584 131.893 59.44 128.864 60.72C125.835 62 122.464 62.64 118.752 62.64ZM167.771 62.64C164.272 62.64 161.051 62.064 158.107 60.912C155.163 59.76 152.603 58.16 150.427 56.112C148.251 54.0213 146.565 51.5893 145.371 48.816C144.176 46 143.579 42.928 143.579 39.6C143.579 36.272 144.176 33.2213 145.371 30.448C146.565 27.632 148.251 25.2 150.427 23.152C152.603 21.0613 155.163 19.44 158.107 18.288C161.051 17.136 164.251 16.56 167.707 16.56C171.205 16.56 174.405 17.136 177.307 18.288C180.251 19.44 182.811 21.0613 184.987 23.152C187.163 25.2 188.848 27.632 190.043 30.448C191.237 33.2213 191.835 36.272 191.835 39.6C191.835 42.928 191.237 46 190.043 48.816C188.848 51.632 187.163 54.064 184.987 56.112C182.811 58.16 180.251 59.76 177.307 60.912C174.405 62.064 171.227 62.64 167.771 62.64ZM167.707 55.344C169.968 55.344 172.059 54.96 173.979 54.192C175.899 53.424 177.563 52.336 178.971 50.928C180.379 49.4773 181.467 47.8133 182.235 45.936C183.045 44.016 183.451 41.904 183.451 39.6C183.451 37.296 183.045 35.2053 182.235 33.328C181.467 31.408 180.379 29.744 178.971 28.336C177.563 26.8853 175.899 25.776 173.979 25.008C172.059 24.24 169.968 23.856 167.707 23.856C165.445 23.856 163.355 24.24 161.435 25.008C159.557 25.776 157.893 26.8853 156.443 28.336C155.035 29.744 153.925 31.408 153.115 33.328C152.347 35.2053 151.963 37.296 151.963 39.6C151.963 41.8613 152.347 43.952 153.115 45.872C153.925 47.792 155.035 49.4773 156.443 50.928C157.851 52.336 159.515 53.424 161.435 54.192C163.355 54.96 165.445 55.344 167.707 55.344ZM203.854 62V17.2H210.702L238.798 51.696H235.406V17.2H243.662V62H236.814L208.718 27.504H212.11V62H203.854ZM267.954 62V24.24H253.106V17.2H291.122V24.24H276.274V62H267.954ZM300.566 62V17.2H318.998C322.966 17.2 326.358 17.84 329.174 19.12C332.033 20.4 334.23 22.2347 335.766 24.624C337.302 27.0133 338.07 29.8507 338.07 33.136C338.07 36.4213 337.302 39.2587 335.766 41.648C334.23 43.9947 332.033 45.808 329.174 47.088C326.358 48.3253 322.966 48.944 318.998 48.944H305.174L308.886 45.168V62H300.566ZM329.878 62L318.55 45.744H327.446L338.838 62H329.878ZM308.886 46.064L305.174 42.096H318.614C322.283 42.096 325.035 41.3067 326.87 39.728C328.747 38.1493 329.686 35.952 329.686 33.136C329.686 30.2773 328.747 28.08 326.87 26.544C325.035 25.008 322.283 24.24 318.614 24.24H305.174L308.886 20.144V46.064ZM371.571 62.64C368.072 62.64 364.851 62.064 361.907 60.912C358.963 59.76 356.403 58.16 354.227 56.112C352.051 54.0213 350.365 51.5893 349.171 48.816C347.976 46 347.379 42.928 347.379 39.6C347.379 36.272 347.976 33.2213 349.171 30.448C350.365 27.632 352.051 25.2 354.227 23.152C356.403 21.0613 358.963 19.44 361.907 18.288C364.851 17.136 368.051 16.56 371.507 16.56C375.005 16.56 378.205 17.136 381.107 18.288C384.051 19.44 386.611 21.0613 388.787 23.152C390.963 25.2 392.648 27.632 393.843 30.448C395.037 33.2213 395.635 36.272 395.635 39.6C395.635 42.928 395.037 46 393.843 48.816C392.648 51.632 390.963 54.064 388.787 56.112C386.611 58.16 384.051 59.76 381.107 60.912C378.205 62.064 375.027 62.64 371.571 62.64ZM371.507 55.344C373.768 55.344 375.859 54.96 377.779 54.192C379.699 53.424 381.363 52.336 382.771 50.928C384.179 49.4773 385.267 47.8133 386.035 45.936C386.845 44.016 387.251 41.904 387.251 39.6C387.251 37.296 386.845 35.2053 386.035 33.328C385.267 31.408 384.179 29.744 382.771 28.336C381.363 26.8853 379.699 25.776 377.779 25.008C375.859 24.24 373.768 23.856 371.507 23.856C369.245 23.856 367.155 24.24 365.235 25.008C363.357 25.776 361.693 26.8853 360.243 28.336C358.835 29.744 357.725 31.408 356.915 33.328C356.147 35.2053 355.763 37.296 355.763 39.6C355.763 41.8613 356.147 43.952 356.915 45.872C357.725 47.792 358.835 49.4773 360.243 50.928C361.651 52.336 363.315 53.424 365.235 54.192C367.155 54.96 369.245 55.344 371.507 55.344ZM407.654 62V17.2H415.974V54.96H439.398V62H407.654ZM442.892 62L463.052 17.2H471.244L491.468 62H482.764L465.42 21.616H468.748L451.468 62H442.892ZM452.172 51.632L454.412 45.104H478.604L480.844 51.632H452.172Z"
    fill="#E4E4E4" />
  <path
    d="M508.526 54V25.2H515.374V54H508.526ZM497.198 42.8V36.4H526.702V42.8H497.198Z"
    fill="#00FF7F" />
  <path
    d="M78.8068 16.8149C78.4369 16.4417 77.9966 16.1457 77.5113 15.9442C77.0261 15.7427 76.5056 15.6397 75.9802 15.6412H73.1583V8.99045C73.1571 7.93248 72.7363 6.91819 71.9882 6.17009C71.2401 5.42199 70.2258 5.00119 69.1678 5H11.7431C8.62862 5.00004 5.64176 6.23727 3.43951 8.43951C1.23727 10.6418 4.40961e-05 13.6286 0 16.7431V62.4248C4.40961e-05 65.5392 1.23727 68.5261 3.43951 70.7283C5.64176 72.9305 8.62862 74.1678 11.7431 74.1678H75.8231C76.8786 74.1658 77.8904 73.7464 78.638 73.0013C79.3855 72.2562 79.8081 71.2456 79.8135 70.1902L79.9705 19.6453C79.9738 19.1199 79.8726 18.5991 79.6728 18.1132C79.473 17.6273 79.1786 17.186 78.8068 16.8149ZM74.4972 68.8472H11.7431C10.0397 68.8472 8.40614 68.1706 7.2017 66.9661C5.99725 65.7617 5.3206 64.1281 5.3206 62.4248V16.7431C5.3206 15.0397 5.99725 13.4061 7.2017 12.2017C8.40614 10.9973 10.0397 10.3206 11.7431 10.3206H67.8377V15.6412H11.9714V20.9618H74.6459L74.4972 68.8472Z"
    fill="#00FF7F" />
  <path d="M67.8377 40.9141H62.5171V46.2347H67.8377V40.9141Z" fill="#00FF7F" />
</svg>